<?xml version="1.0" standalone="no"?>
<!DOCTYPE svg PUBLIC "-//W3C//DTD SVG 20010904//EN"
 "http://www.w3.org/TR/2001/REC-SVG-20010904/DTD/svg10.dtd">
<svg version="1.0" xmlns="http://www.w3.org/2000/svg"
 width="512.000000pt" height="512.000000pt" viewBox="0 0 512.000000 512.000000"
 preserveAspectRatio="xMidYMid meet">
<metadata>
Created by potrace 1.16, written by Peter Selinger 2001-2019
</metadata>
<g transform="translate(0.000000,512.000000) scale(0.100000,-0.100000)"
fill="#000000" stroke="none">
<path d="M1585 4400 c-533 -235 -980 -435 -992 -444 -22 -16 -23 -22 -25 -233
l-3 -217 -174 -78 c-172 -77 -209 -96 -161 -84 25 6 25 6 3 -5 -25 -13 -30
-29 -10 -29 9 0 9 -2 0 -8 -7 -5 59 -39 167 -87 l180 -79 0 -976 c0 -918 1
-978 18 -992 9 -9 457 -209 995 -446 l977 -430 978 430 c537 236 985 437 995
446 16 14 17 72 15 986 l-3 971 -2 -970 c-2 -533 -6 -972 -11 -977 -4 -4 -6
439 -4 985 1 641 6 987 12 977 8 -12 10 -12 10 5 0 17 2 17 10 5 8 -13 10 -12
10 3 0 9 5 17 11 17 5 0 7 -5 4 -11 -4 -5 10 -3 30 5 21 9 39 16 41 16 2 0 4
6 4 13 0 7 15 18 33 25 30 11 31 10 12 -5 -18 -14 -18 -15 -2 -9 10 3 21 6 23
6 2 0 4 6 4 14 0 8 6 17 13 20 6 3 -5 3 -25 0 l-38 -6 0 86 c0 47 2 86 4 86
13 0 66 -23 66 -29 0 -4 6 -8 14 -8 8 0 29 -6 47 -15 19 -8 45 -19 59 -25 24
-10 23 -11 -34 -38 -36 -16 -67 -24 -82 -21 -12 3 -26 1 -30 -5 -4 -7 -1 -10
7 -7 8 3 19 -4 26 -16 7 -12 12 -15 13 -9 0 15 60 48 60 34 0 -6 7 -8 16 -4
13 5 13 8 2 15 -9 7 -5 8 12 4 14 -3 32 -1 40 5 11 8 9 9 -10 5 -25 -6 -25 -6
-2 5 28 15 28 26 1 34 -15 5 -18 10 -9 15 9 5 8 9 -4 13 -8 3 -17 1 -20 -6 -2
-7 -5 -5 -5 4 -1 19 -24 31 -44 23 -7 -2 -42 9 -77 25 -36 17 -58 31 -50 31 8
1 -7 12 -35 25 -27 13 -52 20 -55 15 -3 -5 -12 -5 -20 0 -13 8 -13 10 -1 10
12 0 11 3 -2 13 -9 6 -18 30 -20 52 -3 29 -4 25 -3 -13 1 -28 -2 -52 -6 -52
-5 0 -8 22 -8 49 0 62 -7 81 -31 81 -12 0 -19 7 -19 20 0 13 -7 20 -20 20 -13
0 -20 7 -20 20 0 13 -7 20 -20 20 -13 0 -20 7 -20 20 0 13 -7 20 -20 20 -13 0
-20 7 -20 20 0 13 -7 20 -20 20 -13 0 -20 7 -20 20 0 13 -7 20 -20 20 -13 0
-20 7 -20 20 0 13 -7 20 -20 20 -13 0 -20 7 -20 20 0 13 -7 20 -20 20 -13 0
-20 7 -20 20 0 13 -7 20 -20 20 -13 0 -20 7 -20 20 0 13 -7 20 -20 20 -13 0
-20 7 -20 20 0 13 -7 20 -20 20 -13 0 -20 7 -20 20 0 13 -7 20 -20 20 -13 0
-20 7 -20 20 0 13 -7 20 -20 20 -13 0 -20 7 -20 20 0 12 -7 20 -17 20 -10 1
-31 19 -46 41 -16 23 -22 37 -15 33 10 -6 10 -4 -1 9 -14 18 -36 24 -26 7 3
-6 -1 -7 -9 -4 -9 4 -18 -1 -22 -10 -6 -16 -24 -13 -24 5 0 6 3 8 8 6 4 -3 12
1 19 8 10 10 9 14 -3 19 -8 3 -13 2 -10 -3 3 -5 -5 -8 -19 -7 -14 0 -27 6 -29
12 -3 7 3 10 15 7 31 -8 22 4 -11 16 -18 6 -28 6 -25 1 10 -17 -6 -11 -23 8
-10 10 -13 12 -8 5 5 -8 4 -13 -2 -13 -6 0 -14 5 -17 10 -5 8 -11 7 -21 -1 -9
-7 -14 -8 -13 -3 5 26 -4 42 -28 53 l-28 12 25 -21 25 -21 -27 12 c-16 7 -28
18 -28 26 0 7 -8 13 -17 13 -15 0 -16 -2 -3 -10 22 -14 7 -12 -34 5 -41 17
-50 30 -10 15 14 -6 23 -6 19 -1 -8 14 -73 33 -85 26 -5 -3 -10 0 -10 8 0 8
-7 18 -16 21 -20 8 -24 8 -23 -1 3 -20 -2 -24 -16 -13 -10 9 -12 16 -5 20 7 5
-819 378 -875 395 -5 2 -446 -189 -980 -425z m1744 -521 c1027 -458 1010 -451
1023 -443 6 4 8 3 5 -3 -8 -13 70 -46 85 -37 6 4 8 3 5 -3 -4 -6 20 -22 56
-38 34 -14 65 -32 69 -38 6 -9 8 -9 8 1 0 7 -7 15 -15 18 -16 7 -11 24 7 24 6
0 8 -3 5 -7 -4 -3 -2 -12 4 -19 12 -15 3 -37 -12 -28 -15 9 -140 -47 -132 -59
4 -6 1 -7 -6 -2 -18 11 -95 -26 -79 -38 9 -6 7 -7 -6 -3 -20 7 -149 -42 -142
-53 2 -3 -6 -6 -17 -7 -12 0 -383 -157 -824 -347 l-803 -347 -962 416 c-530
230 -980 424 -1000 433 -21 9 -38 19 -38 22 0 4 132 65 293 137 1126 504 1703
762 1706 762 2 0 349 -154 770 -341z m-2737 -2071 c2 -350 0 -634 -4 -631 -5
2 -7 448 -6 991 2 543 4 827 5 632 2 -195 4 -641 5 -992z m1401 722 l568 -252
597 267 c328 147 603 269 610 272 9 4 12 -52 12 -258 0 -281 -9 -359 -50 -438
-11 -23 -18 -46 -15 -50 2 -5 -14 -4 -38 2 -23 5 -52 11 -64 11 -11 1 -19 4
-17 7 4 7 -66 29 -94 29 -11 0 -23 -4 -26 -8 -2 -4 12 -7 32 -5 26 2 31 1 18
-5 -14 -6 16 -20 123 -56 78 -27 140 -50 138 -52 -2 -2 -61 14 -133 35 -71 22
-130 38 -132 37 -6 -7 18 -56 28 -56 5 0 10 -5 10 -11 0 -5 -4 -7 -10 -4 -5 3
-8 0 -6 -7 3 -7 26 -80 51 -163 25 -82 50 -161 55 -175 27 -77 101 -322 98
-326 -2 -2 -21 49 -42 113 -28 84 -41 112 -48 102 -7 -10 -8 -7 -4 11 3 15 -7
63 -26 120 -35 108 -35 107 -49 93 -8 -8 1 -47 30 -136 42 -128 48 -153 32
-128 -8 12 -19 6 -58 -30 -255 -238 -742 -366 -1219 -318 -549 55 -968 319
-1014 639 -10 70 -13 154 -5 161 2 3 42 -32 88 -77 158 -156 361 -261 636
-329 183 -45 234 -50 501 -49 237 0 264 2 382 27 219 46 389 108 529 193 l77
47 -20 58 -19 58 -72 -47 c-369 -239 -1022 -292 -1508 -124 -290 101 -499 272
-570 467 -20 55 -22 84 -27 338 -2 152 -1 284 2 292 5 14 10 13 43 -3 21 -11
294 -133 606 -272z m1991 -642 l369 -120 -109 -72 c-79 -51 -110 -77 -112 -94
-3 -17 15 -42 72 -100 l76 -78 -60 -59 -60 -59 -78 77 c-42 42 -85 77 -94 77
-19 0 -43 -31 -113 -142 -45 -73 -65 -93 -65 -67 0 6 -54 178 -120 381 -66
204 -120 375 -120 380 0 11 -30 20 414 -124z"/>
</g>
</svg>
